<?xml version="1.0" standalone="no"?>
<svg xmlns="http://www.w3.org/2000/svg" viewBox="0 0 170 75" width="170" height="75"><g fill="#ff5576" color="#ff5576" transform="translate(67.004 0) scale(0.35) "><svg width="100.0" height="100.0" x="0.0" y="0.0" viewBox="0 0 100 100"><g><path d="M75.666,48.902h-8.264l-8.678-14.588H31.927L21.411,48.902h-7.745v20.059h7.294v2.582c0,1.596,1.232,2.889,2.736,2.889   c1.502,0,2.735-1.293,2.735-2.889v-2.582h36.471v2.582c0,1.596,1.232,2.889,2.734,2.889c1.504,0,2.736-1.293,2.736-2.889v-2.582   h7.293V48.902z M33.794,37.961H56.65l6.509,10.941H25.907L33.794,37.961z M72.02,65.314H17.313V52.549H72.02V65.314z"></path><circle cx="24.836" cy="59.159" r="2.964"></circle><circle cx="64.954" cy="59.159" r="2.964"></circle><path d="M86.392,48.666c-0.521-3.176-2.989-5.563-5.923-6.047c0.47-0.843,0.753-1.789,0.81-2.792   c0.108-1.919-0.617-3.87-1.991-5.351c-2.19-2.36-5.548-3.079-8.266-2.005c0.013-0.85-0.146-1.708-0.479-2.531   c-0.719-1.78-2.202-3.237-4.068-3.999c-3.695-1.509-7.923,0.031-9.425,3.433c-0.223,0.505,0.006,1.096,0.511,1.318   c0.509,0.224,1.098-0.006,1.319-0.511c1.069-2.42,4.139-3.49,6.839-2.389c1.369,0.559,2.452,1.614,2.97,2.896   c0.455,1.127,0.443,2.342-0.033,3.421c-0.223,0.505,0.006,1.096,0.511,1.319c0.132,0.058,0.269,0.085,0.403,0.085   c0.272,0,0.532-0.116,0.722-0.314l0.17-0.096c2.053-1.759,5.354-1.43,7.359,0.732c1.007,1.084,1.539,2.498,1.461,3.877   c-0.069,1.231-0.613,2.343-1.531,3.131c-0.419,0.36-0.467,0.991-0.107,1.41c0.198,0.23,0.478,0.349,0.759,0.349l0.158-0.028   l0.1,0.005c2.724-0.407,5.293,1.569,5.758,4.409c0.233,1.419-0.09,2.821-0.909,3.948c-0.764,1.048-1.878,1.731-3.139,1.923   c-0.547,0.082-0.922,0.592-0.839,1.138c0.074,0.496,0.501,0.851,0.987,0.851l0.15-0.012c1.794-0.271,3.377-1.239,4.457-2.724   C86.261,52.552,86.711,50.617,86.392,48.666z"></path></g></svg></g><line x1="68.05390625" y1="41" x2="100.95390624999999" y2="41" stroke="#0b0cac" stroke-linecap="round"></line><path fill="#0b0cac" fill-rule="nonzero" d="M2.88 22.25L0 2.24L2.91 2.24L4.25 14.33L4.41 17.16L4.70 17.16L4.98 13.98L7.14 2.24L9.56 2.24L11.63 13.98L11.86 17.16L12.16 17.16L12.30 14.33L13.54 2.24L16.45 2.24L13.65 22.25L10.57 22.25L8.92 12.63L8.40 8.45L8.17 8.45L7.66 12.63L5.93 22.25L2.88 22.25ZM20.00 3.81L20.00 3.81Q19.18 3.81 18.71 3.32Q18.23 2.82 18.23 1.88L18.23 1.88Q18.23 1.35 18.36 0.99Q18.48 0.63 18.71 0.42Q18.94 0.20 19.27 0.10Q19.59 0 20.02 0L20.02 0Q20.89 0 21.35 0.45Q21.81 0.89 21.81 1.88L21.81 1.88Q21.81 2.79 21.35 3.30Q20.88 3.81 20.00 3.81ZM18.47 22.25L18.47 6.12L21.43 6.12L21.43 22.25L18.47 22.25ZM27.40 21.19L27.49 23.17L27.49 27.47L24.53 27.47L24.53 6.12L26.85 6.12L27.12 7.82Q27.32 7.49 27.59 7.15Q27.87 6.81 28.24 6.54Q28.61 6.28 29.07 6.11Q29.53 5.94 30.11 5.94L30.11 5.94Q30.35 5.94 30.70 5.99Q31.04 6.04 31.41 6.22Q31.78 6.41 32.15 6.78Q32.52 7.15 32.81 7.79Q33.09 8.44 33.28 9.40Q33.46 10.36 33.46 11.73L33.46 11.73L33.46 16.62Q33.46 17.99 33.28 18.95Q33.09 19.91 32.80 20.55Q32.51 21.20 32.13 21.57Q31.76 21.95 31.37 22.14Q30.98 22.32 30.62 22.38Q30.26 22.43 29.99 22.43L29.99 22.43Q29.05 22.43 28.42 22.07Q27.80 21.70 27.40 21.19L27.40 21.19ZM27.49 9.21L27.49 18.96Q27.59 19.20 27.72 19.41Q27.86 19.62 28.04 19.78Q28.22 19.95 28.45 20.04Q28.68 20.14 28.98 20.14L28.98 20.14Q29.31 20.14 29.58 20.02Q29.85 19.90 30.05 19.58Q30.25 19.25 30.36 18.68Q30.47 18.11 30.47 17.20L30.47 17.20L30.47 11.03Q30.47 10.13 30.36 9.56Q30.25 8.99 30.05 8.66Q29.86 8.33 29.59 8.21Q29.32 8.10 28.99 8.10L28.99 8.10Q28.43 8.10 28.07 8.43Q27.71 8.77 27.49 9.21L27.49 9.21ZM40.02 22.43L40.02 22.43Q38.98 22.43 38.17 22.04Q37.37 21.66 36.82 20.84Q36.27 20.02 35.99 18.73Q35.71 17.45 35.71 15.64L35.71 15.64L35.71 12.60Q35.71 11.06 35.94 9.97Q36.16 8.87 36.53 8.13Q36.90 7.38 37.39 6.95Q37.88 6.52 38.39 6.29Q38.91 6.06 39.42 5.99Q39.93 5.93 40.36 5.93L40.36 5.93Q41.16 5.93 41.89 6.17Q42.63 6.41 43.20 6.99Q43.76 7.57 44.09 8.54Q44.43 9.52 44.43 10.97L44.43 10.97Q44.43 11.46 44.40 11.96Q44.37 12.47 44.32 12.96Q44.27 13.44 44.20 13.90Q44.12 14.36 44.04 14.74L44.04 14.74L38.68 14.74L38.68 16.38Q38.68 17.44 38.77 18.16Q38.85 18.88 39.04 19.32Q39.23 19.76 39.57 19.95Q39.90 20.14 40.41 20.14L40.41 20.14Q40.68 20.14 40.93 20.03Q41.19 19.92 41.38 19.66Q41.58 19.41 41.70 18.98Q41.81 18.55 41.81 17.92L41.81 17.92L41.81 17.41L44.29 17.41L44.29 18.04Q44.29 20.33 43.19 21.38Q42.09 22.43 40.02 22.43ZM38.68 12.75L41.66 12.75Q41.67 12.62 41.68 12.40Q41.70 12.19 41.70 11.95Q41.71 11.72 41.71 11.49Q41.71 11.26 41.71 11.10L41.71 11.10Q41.71 9.50 41.33 8.80Q40.96 8.10 40.22 8.10L40.22 8.10Q39.83 8.10 39.54 8.28Q39.25 8.46 39.06 8.89Q38.87 9.32 38.78 10.02Q38.68 10.72 38.68 11.77L38.68 11.77L38.68 12.75ZM56.57 22.43L56.57 22.43Q56.10 22.43 55.55 22.35Q55.01 22.28 54.46 22.03Q53.92 21.79 53.42 21.33Q52.92 20.88 52.54 20.14Q52.16 19.41 51.93 18.32Q51.70 17.24 51.70 15.74L51.70 15.74L51.70 8.65Q51.70 7.14 51.94 6.06Q52.17 4.99 52.56 4.26Q52.95 3.53 53.45 3.09Q53.95 2.66 54.49 2.43Q55.03 2.20 55.56 2.13Q56.10 2.06 56.55 2.06L56.55 2.06Q57.75 2.06 58.55 2.40Q59.36 2.73 59.84 3.31Q60.33 3.89 60.53 4.66Q60.74 5.44 60.74 6.30L60.74 6.30Q60.74 6.95 60.67 7.49Q60.61 8.04 60.48 8.70L60.48 8.70L58.02 8.70L58.02 7.68Q58.02 6.02 57.66 5.20Q57.29 4.38 56.59 4.38L56.59 4.38Q56.17 4.38 55.85 4.55Q55.54 4.71 55.32 5.10Q55.11 5.50 55.00 6.14Q54.89 6.79 54.89 7.75L54.89 7.75L54.89 16.89Q54.89 17.82 54.98 18.45Q55.07 19.07 55.27 19.44Q55.46 19.82 55.79 19.97Q56.11 20.13 56.57 20.13L56.57 20.13Q56.86 20.13 57.13 20.00Q57.40 19.86 57.60 19.58Q57.81 19.29 57.93 18.85Q58.05 18.41 58.05 17.81L58.05 17.81L58.05 15.86L60.83 15.86L60.83 17.71Q60.83 20.12 59.73 21.27Q58.63 22.42 56.57 22.43ZM65.26 22.43L65.26 22.43Q64.51 22.43 63.93 22.13Q63.35 21.83 62.95 21.32Q62.55 20.80 62.35 20.09Q62.14 19.38 62.14 18.55L62.14 18.55Q62.14 17.55 62.39 16.78Q62.64 16.01 63.11 15.39Q63.59 14.77 64.29 14.26Q64.99 13.75 65.92 13.29L65.92 13.29Q66.36 13.07 66.92 12.84Q67.48 12.61 67.91 12.45L67.91 12.45L67.91 10.31Q67.91 9.84 67.88 9.44Q67.84 9.04 67.71 8.74Q67.57 8.44 67.30 8.27Q67.03 8.10 66.56 8.10L66.56 8.10Q66.25 8.10 65.95 8.21Q65.65 8.33 65.42 8.61Q65.19 8.89 65.06 9.36Q64.92 9.83 64.92 10.52L64.92 10.52L64.92 11.23L62.66 11.23Q62.55 10.77 62.50 10.39Q62.45 10.01 62.45 9.63L62.45 9.63Q62.45 8.73 62.76 8.04Q63.07 7.35 63.63 6.88Q64.18 6.41 64.96 6.17Q65.73 5.93 66.66 5.93L66.66 5.93Q67.86 5.93 68.66 6.19Q69.46 6.46 69.93 6.98Q70.41 7.51 70.60 8.31Q70.79 9.11 70.79 10.17L70.79 10.17L70.79 22.25L68.59 22.25L68.38 20.87Q67.90 21.56 67.10 22.00Q66.29 22.43 65.26 22.43ZM66.57 20.14L66.57 20.14Q66.95 20.14 67.31 19.95Q67.66 19.76 67.91 19.48L67.91 19.48L67.91 14.43Q67.68 14.52 67.38 14.65Q67.09 14.78 66.75 14.99L66.75 14.99Q66.43 15.19 66.13 15.47Q65.82 15.75 65.58 16.14Q65.34 16.52 65.20 17.01Q65.05 17.50 65.05 18.09L65.05 18.09Q65.05 19.02 65.41 19.58Q65.78 20.14 66.57 20.14ZM73.86 22.25L73.86 6.12L76.03 6.12L76.29 7.76Q76.78 6.84 77.42 6.39Q78.06 5.93 78.73 5.93L78.73 5.93Q80.00 5.93 80.61 6.71Q81.22 7.50 81.22 9.07L81.22 9.07Q81.22 9.27 81.19 9.54Q81.16 9.82 81.11 10.12Q81.06 10.42 80.98 10.72Q80.91 11.02 80.82 11.26L80.82 11.26L78.76 11.26L78.76 9.76Q78.76 9.27 78.70 8.95Q78.63 8.64 78.53 8.44Q78.42 8.25 78.28 8.17Q78.14 8.10 77.98 8.10L77.98 8.10Q77.63 8.10 77.33 8.33Q77.03 8.55 76.83 8.96L76.83 8.96L76.83 22.25L73.86 22.25ZM88.42 22.25L88.42 2.24L91.57 2.24Q92.29 2.24 93.05 2.28Q93.82 2.32 94.55 2.53Q95.29 2.74 95.94 3.18Q96.59 3.62 97.08 4.41Q97.57 5.20 97.86 6.40Q98.14 7.61 98.14 9.34L98.14 9.34L98.14 15.15Q98.14 16.89 97.86 18.09Q97.57 19.30 97.08 20.09Q96.59 20.87 95.94 21.31Q95.29 21.75 94.55 21.96Q93.82 22.17 93.05 22.21Q92.29 22.25 91.57 22.25L91.57 22.25L88.42 22.25ZM91.45 20.13L92.23 20.13Q93.05 20.13 93.58 19.92Q94.11 19.71 94.42 19.18Q94.73 18.64 94.85 17.72Q94.97 16.80 94.97 15.40L94.97 15.40L94.97 9.19Q94.97 7.78 94.85 6.86Q94.73 5.94 94.42 5.41Q94.11 4.88 93.58 4.66Q93.05 4.45 92.23 4.45L92.23 4.45L91.45 4.45L91.45 20.13ZM104.55 22.43L104.55 22.43Q103.51 22.43 102.71 22.04Q101.91 21.66 101.36 20.84Q100.80 20.02 100.52 18.73Q100.24 17.45 100.24 15.64L100.24 15.64L100.24 12.60Q100.24 11.06 100.47 9.97Q100.70 8.87 101.07 8.13Q101.44 7.38 101.92 6.95Q102.41 6.52 102.93 6.29Q103.44 6.06 103.95 5.99Q104.46 5.93 104.89 5.93L104.89 5.93Q105.69 5.93 106.43 6.17Q107.17 6.41 107.73 6.99Q108.29 7.57 108.63 8.54Q108.96 9.52 108.96 10.97L108.96 10.97Q108.96 11.46 108.93 11.96Q108.90 12.47 108.86 12.96Q108.81 13.44 108.73 13.90Q108.66 14.36 108.57 14.74L108.57 14.74L103.22 14.74L103.22 16.38Q103.22 17.44 103.30 18.16Q103.38 18.88 103.58 19.32Q103.77 19.76 104.10 19.95Q104.44 20.14 104.94 20.14L104.94 20.14Q105.21 20.14 105.47 20.03Q105.73 19.92 105.92 19.66Q106.11 19.41 106.23 18.98Q106.35 18.55 106.35 17.92L106.35 17.92L106.35 17.41L108.82 17.41L108.82 18.04Q108.82 20.33 107.72 21.38Q106.63 22.43 104.55 22.43ZM103.22 12.75L106.20 12.75Q106.21 12.62 106.22 12.40Q106.23 12.19 106.24 11.95Q106.24 11.72 106.24 11.49Q106.24 11.26 106.24 11.10L106.24 11.10Q106.24 9.50 105.87 8.80Q105.49 8.10 104.75 8.10L104.75 8.10Q104.37 8.10 104.07 8.28Q103.78 8.46 103.59 8.89Q103.41 9.32 103.31 10.02Q103.22 10.72 103.22 11.77L103.22 11.77L103.22 12.75ZM111.81 18.23L111.81 8.23L110.55 8.23L110.55 6.12L112.07 6.12L112.66 1.93L114.77 1.93L114.77 6.12L117.35 6.12L117.35 8.23L114.77 8.23L114.77 18.49Q114.77 19.02 114.87 19.34Q114.97 19.66 115.15 19.85Q115.32 20.03 115.56 20.09Q115.79 20.14 116.05 20.14L116.05 20.14Q116.48 20.14 116.82 20.04Q117.15 19.93 117.46 19.75L117.46 19.75L117.46 21.39Q117.20 21.70 116.90 21.90Q116.60 22.10 116.29 22.22Q115.97 22.35 115.64 22.39Q115.31 22.44 115.00 22.44L115.00 22.44Q114.38 22.44 113.80 22.28Q113.23 22.11 112.78 21.65Q112.34 21.19 112.07 20.37Q111.81 19.55 111.81 18.23L111.81 18.23ZM121.61 22.43L121.61 22.43Q120.86 22.43 120.28 22.13Q119.70 21.83 119.30 21.32Q118.90 20.80 118.69 20.09Q118.49 19.38 118.49 18.55L118.49 18.55Q118.49 17.55 118.73 16.78Q118.98 16.01 119.46 15.39Q119.93 14.77 120.63 14.26Q121.34 13.75 122.26 13.29L122.26 13.29Q122.71 13.07 123.26 12.84Q123.82 12.61 124.25 12.45L124.25 12.45L124.25 10.31Q124.25 9.84 124.22 9.44Q124.18 9.04 124.05 8.74Q123.91 8.44 123.64 8.27Q123.38 8.10 122.91 8.10L122.91 8.10Q122.59 8.10 122.29 8.21Q121.99 8.33 121.76 8.61Q121.54 8.89 121.40 9.36Q121.27 9.83 121.27 10.52L121.27 10.52L121.27 11.23L119.00 11.23Q118.90 10.77 118.85 10.39Q118.79 10.01 118.79 9.63L118.79 9.63Q118.79 8.73 119.10 8.04Q119.41 7.35 119.97 6.88Q120.53 6.41 121.30 6.17Q122.07 5.93 123 5.93L123 5.93Q124.21 5.93 125.00 6.19Q125.80 6.46 126.28 6.98Q126.75 7.51 126.94 8.31Q127.14 9.11 127.14 10.17L127.14 10.17L127.14 22.25L124.93 22.25L124.72 20.87Q124.24 21.56 123.44 22.00Q122.64 22.43 121.61 22.43ZM122.92 20.14L122.92 20.14Q123.29 20.14 123.65 19.95Q124.01 19.76 124.25 19.48L124.25 19.48L124.25 14.43Q124.02 14.52 123.73 14.65Q123.43 14.78 123.09 14.99L123.09 14.99Q122.78 15.19 122.47 15.47Q122.17 15.75 121.93 16.14Q121.69 16.52 121.54 17.01Q121.39 17.50 121.39 18.09L121.39 18.09Q121.39 19.02 121.76 19.58Q122.12 20.14 122.92 20.14ZM131.79 3.81L131.79 3.81Q130.97 3.81 130.49 3.32Q130.02 2.82 130.02 1.88L130.02 1.88Q130.02 1.35 130.14 0.99Q130.27 0.63 130.49 0.42Q130.72 0.20 131.05 0.10Q131.38 0 131.80 0L131.80 0Q132.68 0 133.14 0.45Q133.59 0.89 133.59 1.88L133.59 1.88Q133.59 2.79 133.13 3.30Q132.67 3.81 131.79 3.81ZM130.25 22.25L130.25 6.12L133.22 6.12L133.22 22.25L130.25 22.25ZM136.36 22.25L136.36 0.94L139.32 0.94L139.32 22.25L136.36 22.25ZM144 3.81L144 3.81Q143.18 3.81 142.71 3.32Q142.23 2.82 142.23 1.88L142.23 1.88Q142.23 1.35 142.35 0.99Q142.48 0.63 142.71 0.42Q142.93 0.20 143.26 0.10Q143.59 0 144.01 0L144.01 0Q144.89 0 145.35 0.45Q145.80 0.89 145.80 1.88L145.80 1.88Q145.80 2.79 145.34 3.30Q144.88 3.81 144 3.81ZM142.46 22.25L142.46 6.12L145.43 6.12L145.43 22.25L142.46 22.25ZM148.52 22.25L148.52 6.12L150.81 6.12L151.08 7.84L151.08 7.85Q151.43 7.30 151.83 6.93Q152.24 6.56 152.67 6.34Q153.11 6.12 153.56 6.02Q154.01 5.93 154.45 5.93L154.45 5.93Q155.87 5.93 156.64 6.92Q157.41 7.91 157.41 9.89L157.41 9.89L157.41 22.25L154.44 22.25L154.44 10.00Q154.44 8.93 154.11 8.51Q153.79 8.10 153.15 8.10L153.15 8.10Q152.71 8.10 152.27 8.39Q151.83 8.68 151.49 9.20L151.49 9.20L151.49 22.25L148.52 22.25ZM160.79 23.36L162.89 23.36Q162.89 24.40 163.28 24.83Q163.66 25.27 164.47 25.27L164.47 25.27Q164.80 25.27 165.11 25.17Q165.41 25.07 165.64 24.80Q165.87 24.54 166.01 24.07Q166.15 23.60 166.15 22.86L166.15 22.86L166.15 20.32Q165.75 20.84 165.12 21.21Q164.50 21.57 163.57 21.57L163.57 21.57Q163.30 21.57 162.94 21.52Q162.57 21.47 162.19 21.28Q161.80 21.09 161.43 20.71Q161.05 20.33 160.76 19.69Q160.46 19.04 160.28 18.08Q160.10 17.11 160.10 15.74L160.10 15.74L160.10 11.50Q160.10 10.18 160.28 9.26Q160.46 8.34 160.76 7.72Q161.05 7.10 161.43 6.75Q161.81 6.40 162.21 6.22Q162.60 6.04 162.97 5.99Q163.35 5.94 163.64 5.94L163.64 5.94Q164.23 5.94 164.68 6.09Q165.13 6.25 165.46 6.50Q165.80 6.75 166.03 7.07Q166.27 7.38 166.43 7.70L166.43 7.70L166.70 6.11L169.01 6.11L169.01 21.60Q169.01 22.95 168.75 24.03Q168.49 25.11 167.94 25.88Q167.39 26.65 166.54 27.06Q165.69 27.47 164.51 27.47L164.51 27.47Q163.71 27.47 163.01 27.33Q162.30 27.19 161.78 26.83Q161.25 26.47 160.95 25.86Q160.64 25.24 160.64 24.29L160.64 24.29Q160.64 24.13 160.68 23.88Q160.71 23.64 160.79 23.36L160.79 23.36ZM164.58 19.28L164.58 19.28Q164.87 19.28 165.10 19.18Q165.33 19.08 165.51 18.91Q165.69 18.75 165.83 18.54Q165.96 18.33 166.05 18.11L166.05 18.11L166.05 9.28Q165.83 8.79 165.46 8.44Q165.09 8.10 164.57 8.10L164.57 8.10Q164.24 8.10 163.97 8.21Q163.70 8.33 163.50 8.65Q163.30 8.98 163.19 9.54Q163.08 10.11 163.08 11.02L163.08 11.02L163.08 16.32Q163.08 17.23 163.19 17.80Q163.30 18.38 163.50 18.70Q163.70 19.03 163.97 19.15Q164.25 19.28 164.58 19.28Z" transform="translate(0, 47)"></path></svg>