<?xml version="1.0" standalone="no"?>
<svg xmlns="http://www.w3.org/2000/svg" viewBox="0 0 86.616 36" width="86.616" height="36"><g fill="#cb7777" color="#cb7777" transform="translate(0 4) scale(0.3076924)"><svg width="91.0" height="91.0" x="0.0" y="0.0" viewBox="0 0 91 91"><g><path d="M32.704,53.004c-2.02,0-3.662,1.645-3.662,3.666c0,2.02,1.643,3.662,3.662,3.662s3.664-1.643,3.664-3.662   C36.368,54.648,34.724,53.004,32.704,53.004z"></path><path d="M66.644,18.158v2.699c0,1.381,1.119,2.5,2.5,2.5c1.379,0,2.5-1.119,2.5-2.5v-2.699c0-1.381-1.121-2.5-2.5-2.5   C67.763,15.658,66.644,16.777,66.644,18.158z"></path><path d="M69.144,33.765c1.379,0,2.5-1.119,2.5-2.5v-2.699c0-1.381-1.121-2.5-2.5-2.5c-1.381,0-2.5,1.119-2.5,2.5v2.699   C66.644,32.646,67.763,33.765,69.144,33.765z"></path><path d="M62.591,27.212h2.695c1.381,0,2.5-1.119,2.5-2.5s-1.119-2.5-2.5-2.5h-2.695c-1.381,0-2.5,1.119-2.5,2.5   S61.21,27.212,62.591,27.212z"></path><path d="M72.997,22.212c-1.381,0-2.5,1.119-2.5,2.5s1.119,2.5,2.5,2.5h2.699c1.381,0,2.5-1.119,2.5-2.5s-1.119-2.5-2.5-2.5H72.997z   "></path><path d="M34.251,21.25c0,3.756,3.055,6.811,6.809,6.811c3.756,0,6.811-3.055,6.811-6.811c0-3.752-3.055-6.807-6.811-6.807   C37.306,14.443,34.251,17.498,34.251,21.25z M42.87,21.25c0,0.998-0.813,1.811-1.811,1.811c-0.996,0-1.809-0.813-1.809-1.811   c0-0.996,0.813-1.807,1.809-1.807C42.058,19.443,42.87,20.253,42.87,21.25z"></path><path d="M86.034,48.121c0-4.907-3.992-8.899-8.898-8.899c-2.758,0-5.203,1.26-6.834,3.229c-2.748-5.846-9.018-11.563-23.082-11.563   c-3.943,0-7.447,0.473-10.52,1.381c0.178-2.107-0.568-4.271-2.258-5.791c-2.139-1.924-5.127-2.299-7.594-1.158   c-3.346-2.514-8.135-2.098-10.992,1.07c-1.699,1.889-2.377,4.408-1.977,6.818c-1.268,0.236-2.486,0.697-3.586,1.402   c-4.656,2.996-6.01,9.221-3.018,13.875c0.662,1.035,1.508,1.932,2.492,2.652c-0.115,1.814,0.348,3.629,1.348,5.188   c1.594,2.475,4.303,3.951,7.246,3.951c0.146,0,0.287-0.023,0.432-0.029c0.566,1.734,1.453,3.311,2.586,4.646   c-0.014,0.104-0.033,0.205-0.033,0.311v5.697c0,3.447,2.805,6.252,6.252,6.252h3.057c3.445,0,6.25-2.805,6.25-6.252v-1.512h20.631   v1.514c0,3.445,2.803,6.25,6.248,6.25h3.059c3.447,0,6.252-2.805,6.252-6.25v-5.133c1.52,1.088,3.344,1.697,5.248,1.697   c4.996,0,9.061-4.064,9.061-9.061c0-2.295-0.881-4.479-2.398-6.129C85.677,51.014,86.034,49.596,86.034,48.121z M62.872,64.391   h-32.09c-0.281,0-0.559-0.021-0.838-0.055c-2.98-0.363-5.492-2.689-6.443-5.811c1.531-1.15,2.646-2.752,3.148-4.57   c1.324-0.131,2.6-0.572,3.73-1.299c1.469-0.945,2.549-2.271,3.189-3.77h27.439c-1.6,1.857-2.572,4.264-2.572,6.898   C58.437,59.33,60.19,62.465,62.872,64.391z M65.417,43.886H34.093c-0.201-1.008-0.582-2-1.172-2.916   c-0.213-0.33-0.447-0.637-0.699-0.93c0.033-0.084,0.07-0.168,0.098-0.256c0.201-0.074,0.398-0.166,0.582-0.295   c3.361-2.391,8.18-3.602,14.318-3.602C56.425,35.888,62.519,38.583,65.417,43.886z M19.573,29.736   c1.176-1.305,3.191-1.406,4.492-0.238c0.174,0.156,0.324,0.324,0.459,0.51c0.432,0.6,1.105,0.977,1.842,1.031   c0.746,0.051,1.461-0.221,1.977-0.75c0.748-0.768,1.961-0.811,2.754-0.094c0.816,0.732,0.881,1.994,0.148,2.811   c-0.363,0.402-0.865,0.635-1.412,0.656c-0.787,0.029-1.514,0.428-1.963,1.076c-0.447,0.65-0.563,1.473-0.313,2.219   c0.037,0.107,0.039,0.227,0.055,0.34c-0.586-0.127-1.188-0.205-1.803-0.205c-0.627,0-1.25,0.07-1.859,0.207   c-1.18-1.686-2.818-2.939-4.691-3.643c-0.035-0.08-0.061-0.162-0.105-0.242C18.493,32.226,18.661,30.748,19.573,29.736z    M15.321,53.621c-0.572-0.893-0.723-1.99-0.41-3.012c0.363-1.189-0.203-2.465-1.33-2.994c-0.863-0.404-1.59-1.037-2.098-1.829   c-1.504-2.34-0.824-5.465,1.514-6.969c0.816-0.525,1.756-0.801,2.719-0.801c1.729,0,3.318,0.867,4.254,2.318   c0.188,0.293,0.348,0.615,0.477,0.961c0.26,0.691,0.813,1.232,1.51,1.479c0.693,0.248,1.465,0.172,2.102-0.203   c1.555-0.922,3.688-0.404,4.658,1.104c1.029,1.602,0.563,3.745-1.039,4.776c-0.783,0.502-1.746,0.664-2.658,0.453   c-0.766-0.174-1.57,0.014-2.174,0.52c-0.602,0.504-0.932,1.264-0.889,2.047c0.068,1.299-0.564,2.537-1.648,3.232   c-0.586,0.377-1.256,0.574-1.945,0.574C17.126,55.277,15.989,54.658,15.321,53.621z M31.905,70.902c0,0.689-0.561,1.252-1.25,1.252   h-3.057c-0.689,0-1.252-0.563-1.252-1.252v-2.377c0.951,0.385,1.953,0.648,2.988,0.773c0.504,0.061,0.977,0.092,1.447,0.092h1.123   V70.902z M66.843,72.154h-3.059c-0.688,0-1.248-0.561-1.248-1.25v-1.514h1.127c0.43,0,0.859-0.025,1.311-0.076   c0.492-0.014,1.74-0.092,3.121-0.486v2.076C68.095,71.594,67.532,72.154,66.843,72.154z M78.343,62.469   c-1.193,0-2.322-0.525-3.098-1.443c-0.49-0.58-1.197-0.885-1.91-0.885c-0.459,0-0.92,0.125-1.334,0.385   c-0.891,0.563-1.916,0.859-2.963,0.859c-3.088,0-5.602-2.512-5.602-5.6c0-3.441,3.086-6.186,6.676-5.486   c1.199,0.416,1.584,1.145,1.641,1.273c0.371,1.006,1.324,1.637,2.348,1.637c0.26,0,0.527-0.041,0.789-0.129   c1.311-0.436,2.018-1.852,1.582-3.162c-0.084-0.254-0.773-2.076-2.867-3.434c0.615-1.342,1.965-2.262,3.531-2.262   c2.15,0,3.898,1.748,3.898,3.899c0,1.059-0.424,2.053-1.189,2.797c-0.564,0.547-0.838,1.328-0.74,2.107   c0.1,0.779,0.559,1.469,1.242,1.857c1.268,0.725,2.057,2.076,2.057,3.525C82.403,60.648,80.581,62.469,78.343,62.469z"></path></g></svg></g><path fill="#302e50" fill-rule="nonzero" d="M6.19 18L5.81 1.61Q4.10 2.26 3.17 3.61Q2.23 4.97 2.23 6.94L2.23 6.94Q2.23 7.82 2.40 8.17Q2.57 8.52 2.57 8.57L2.57 8.57Q1.27 8.57 0.64 8.03Q0 7.49 0 6.24L0 6.24Q0 4.70 1.26 3.25Q2.52 1.80 4.49 0.90Q6.46 0 8.42 0L8.42 0Q8.76 0 9.38 0.05L9.38 0.05L9.60 14.81L14.64 0.12L17.69 0.12L17.90 14.81L22.94 0.12L24.62 0.12L17.95 18L14.50 18L14.21 5.78L9.65 18L6.19 18ZM26.95 4.70Q26.16 4.70 25.61 4.15Q25.06 3.60 25.06 2.81L25.06 2.81Q25.06 2.02 25.61 1.45Q26.16 0.89 26.95 0.89L26.95 0.89Q27.74 0.89 28.31 1.45Q28.87 2.02 28.87 2.81L28.87 2.81Q28.87 3.60 28.31 4.15Q27.74 4.70 26.95 4.70L26.95 4.70ZM25.32 18.14Q24.17 18.14 23.46 17.42Q22.75 16.70 22.75 15.26L22.75 15.26Q22.75 14.66 22.94 13.70L22.94 13.70L24.58 6L28.03 6L26.30 14.16Q26.21 14.52 26.21 14.93L26.21 14.93Q26.21 15.41 26.44 15.61Q26.66 15.82 27.19 15.82L27.19 15.82Q27.89 15.82 28.49 15.23Q29.09 14.64 29.35 13.70L29.35 13.70L30.36 13.70Q29.47 16.30 28.08 17.22Q26.69 18.14 25.32 18.14L25.32 18.14ZM27.17 24L31.18 5.11L34.63 5.11L34.25 6.91Q35.45 5.88 37.06 5.88L37.06 5.88Q38.40 5.88 39.19 6.77Q39.98 7.66 39.98 9.67L39.98 9.67Q39.98 11.57 39.43 13.50Q38.88 15.43 37.56 16.79Q36.24 18.14 34.08 18.14L34.08 18.14Q32.54 18.14 32.04 17.28L32.04 17.28L30.79 23.14L27.17 24ZM33.34 16.06Q34.49 16.06 35.24 14.98Q36.00 13.90 36.35 12.40Q36.70 10.90 36.70 9.60L36.70 9.60Q36.70 7.61 35.50 7.61L35.50 7.61Q35.06 7.61 34.62 7.92Q34.18 8.23 33.84 8.78L33.84 8.78L32.42 15.50Q32.62 16.06 33.34 16.06L33.34 16.06ZM44.02 18.14Q42.24 18.14 41.26 17.22Q40.27 16.30 40.27 14.33L40.27 14.33Q40.27 12.67 40.92 10.68Q41.57 8.69 43.03 7.24Q44.50 5.78 46.75 5.78L46.75 5.78Q49.39 5.78 49.39 8.09L49.39 8.09Q49.39 9.43 48.62 10.56Q47.86 11.69 46.58 12.37Q45.31 13.06 43.87 13.15L43.87 13.15Q43.82 13.87 43.82 14.11L43.82 14.11Q43.82 15.29 44.23 15.71Q44.64 16.13 45.55 16.13L45.55 16.13Q46.85 16.13 47.77 15.53Q48.70 14.93 49.80 13.70L49.80 13.70L50.62 13.70Q47.95 18.14 44.02 18.14L44.02 18.14ZM44.06 12Q44.95 11.95 45.76 11.38Q46.56 10.80 47.05 9.91Q47.54 9.02 47.54 8.04L47.54 8.04Q47.54 7.06 46.94 7.06L46.94 7.06Q46.08 7.06 45.25 8.57Q44.42 10.08 44.06 12L44.06 12Z" transform="translate(36, 9)"></path></svg>